<svg width="115" height="77" viewBox="0 0 115 77" fill="none" xmlns="http://www.w3.org/2000/svg">
<path d="M98.9014 66.6786C92.3399 65.0185 86.3808 60.7932 81.505 55.2986C80.1226 53.7392 78.8248 52.0874 77.6122 50.3472C77.0978 49.6075 78.0421 48.7301 78.5566 49.4698C82.6602 55.3532 87.8293 60.3774 93.8028 63.3141C95.4947 64.145 97.2416 64.7962 99.0233 65.2464C99.7997 65.4403 99.6849 66.8755 98.9014 66.6786Z" fill="#181818"/>
<path d="M97.3744 58.8741C98.8819 62.8011 101.565 66.2343 104.966 68.6853C101.642 68.4363 98.314 68.2746 94.9824 68.1958C93.9519 68.1716 93.876 69.7725 94.9109 69.7968C99.3603 69.9037 103.807 70.1591 108.239 70.5668C108.997 70.6356 109.43 69.4529 108.711 69.093C104.154 66.8044 100.618 62.8917 98.7933 58.1288C98.4255 57.1638 97.0062 57.9179 97.3744 58.8741Z" fill="#181818"/>
<path d="M90.2942 27.9205C90.8814 29.0841 91.2396 30.0723 91.3689 30.8851C91.494 31.6591 91.3959 32.1272 91.0745 32.2894C90.8914 32.3817 90.708 32.4028 90.5244 32.3525C90.3428 32.3063 90.2161 32.212 90.1443 32.0696C90.1443 32.0696 90.0603 31.6653 89.8922 30.8568C89.7221 30.0442 89.4513 29.2697 89.0797 28.5333C88.5234 27.4307 87.9928 26.6928 87.4881 26.3196C86.9669 25.9343 86.4134 25.8894 85.8275 26.185C85.5183 26.341 85.241 26.5754 84.9955 26.8881C84.75 27.2009 84.5942 27.5092 84.5281 27.8131C84.45 28.1945 84.5505 28.6619 84.8297 29.2152L85.0268 29.6058C85.5503 30.6433 86.0971 31.6308 86.6671 32.5683C87.2391 33.4997 87.5087 33.9328 87.4758 33.8677C87.6791 34.2705 87.5935 34.5664 87.2192 34.7552C87.0036 34.864 86.8171 34.8739 86.6599 34.7848C86.5251 34.7099 86.344 34.5128 86.1166 34.1937C85.4999 33.3155 84.7943 32.0891 83.9999 30.5145C83.3039 29.1352 82.66 27.4795 82.068 25.5475C81.9421 25.1261 81.8799 24.841 81.8814 24.6922C81.8888 24.4741 81.9983 24.3117 82.2098 24.2049C82.3645 24.1269 82.5234 24.1182 82.6867 24.1788C82.8499 24.2393 82.9767 24.3591 83.0671 24.5381C83.0629 24.53 83.3041 25.2659 83.7905 26.7458C84.075 25.9743 84.6018 25.3946 85.3708 25.0066C87.2058 24.0808 88.8469 25.052 90.2942 27.9205ZM96.9967 22.3718C97.2102 22.7949 97.2218 23.1821 97.0315 23.5334C96.9465 23.6886 96.592 24.0129 95.9681 24.5064C95.141 25.1636 94.4019 25.6565 93.7509 25.9849C93.4539 26.1348 93.0856 26.2951 92.646 26.4659C93.42 27.9998 94.3908 28.4721 95.5585 27.883C95.8799 27.7208 96.1247 27.4824 96.2927 27.168C96.3777 27.0128 96.5018 26.677 96.665 26.1608C96.7235 25.9731 96.8198 25.8454 96.9541 25.7776C97.125 25.6914 97.3043 25.6826 97.492 25.7512C97.6818 25.8137 97.8239 25.9385 97.9183 26.1257C97.9963 26.2803 98.0092 26.4524 97.9569 26.6422C97.643 27.7602 97.0162 28.5563 96.0763 29.0306C94.1314 30.0118 92.5914 29.3775 91.4561 27.1275C90.871 25.9679 90.6752 24.811 90.8687 23.6567C91.0902 22.3454 91.7197 21.428 92.7572 20.9045C93.5669 20.496 94.3706 20.4299 95.1686 20.7062C95.9665 20.9825 96.5758 21.5377 96.9967 22.3718ZM95.8191 23.0578C95.5094 22.5046 95.135 22.132 94.6961 21.9399C94.2613 21.7459 93.8405 21.7515 93.4336 21.9568C92.9047 22.2237 92.5343 22.6479 92.3224 23.2295C92.1003 23.8214 92.0642 24.5186 92.2138 25.321C92.5191 25.2078 92.8345 25.0691 93.16 24.9049C93.9494 24.5066 94.8357 23.8909 95.8191 23.0578ZM102.226 18.6383C102.304 18.7929 102.323 18.9467 102.283 19.0997C102.243 19.2527 102.157 19.3621 102.027 19.4278C101.93 19.477 101.749 19.4787 101.486 19.4328C101.223 19.3869 101.014 19.4029 100.86 19.4809C100.473 19.676 100.246 20.0049 100.178 20.4678C100.109 20.9266 100.22 21.4449 100.511 22.0227L100.915 22.8222C101.364 23.7132 101.628 24.4684 101.705 25.0877C101.779 25.6683 101.677 26.0284 101.401 26.168C101.03 26.3548 100.753 26.2651 100.568 25.8989C100.531 25.8257 100.453 25.5284 100.332 25.0071C100.21 24.4817 100.046 24.0136 99.8382 23.6026C99.2634 22.4634 98.6408 21.6341 97.9704 21.1148C97.952 21.0986 97.7364 20.9496 97.3237 20.6678C97.1133 20.5238 96.9783 20.3929 96.9187 20.2749C96.853 20.1447 96.8545 19.9908 96.9232 19.8132C96.9918 19.6357 97.0994 19.5099 97.2458 19.436C97.6771 19.2184 98.302 19.5667 99.1206 20.4809C99.1332 19.4536 99.5443 18.7357 100.354 18.3272C100.761 18.1219 101.139 18.0512 101.487 18.1152C101.834 18.175 102.08 18.3494 102.226 18.6383ZM109.581 16.0221C109.795 16.4452 109.806 16.8324 109.616 17.1837C109.531 17.3389 109.177 17.6632 108.553 18.1567C107.726 18.8139 106.986 19.3068 106.335 19.6352C106.038 19.7851 105.67 19.9454 105.231 20.1162C106.004 21.6501 106.975 22.1224 108.143 21.5333C108.464 21.3711 108.709 21.1327 108.877 20.8183C108.962 20.6631 109.086 20.3273 109.25 19.8111C109.308 19.6234 109.404 19.4957 109.539 19.4279C109.709 19.3417 109.889 19.3329 110.077 19.4015C110.266 19.464 110.408 19.5888 110.503 19.776C110.581 19.9306 110.594 20.1027 110.541 20.2925C110.228 21.4105 109.601 22.2066 108.661 22.6809C106.716 23.6621 105.176 23.0278 104.041 20.7778C103.456 19.6182 103.26 18.4613 103.453 17.307C103.675 15.9957 104.304 15.0783 105.342 14.5548C106.151 14.1463 106.955 14.0802 107.753 14.3565C108.551 14.6328 109.16 15.188 109.581 16.0221ZM108.404 16.7081C108.094 16.1549 107.72 15.7823 107.281 15.5902C106.846 15.3962 106.425 15.4018 106.018 15.6071C105.489 15.874 105.119 16.2982 104.907 16.8798C104.685 17.4717 104.649 18.1689 104.798 18.9713C105.104 18.8581 105.419 18.7194 105.745 18.5552C106.534 18.1569 107.42 17.5412 108.404 16.7081Z" fill="#181818"/>
<path d="M52.6811 39.7374C52.7517 39.8804 52.7611 40.0384 52.7092 40.2114C52.6553 40.3803 52.5589 40.499 52.42 40.5676C52.3873 40.5837 52.1182 40.5996 51.6126 40.6153C51.1071 40.6309 50.6336 40.7477 50.1923 40.9655C49.5016 41.3063 49.1574 41.8293 49.1598 42.5345C49.1621 42.8687 49.2821 43.3126 49.5197 43.8662C49.7856 44.4465 50.0516 45.0267 50.3176 45.6069C51.4736 45.1483 52.2515 44.8763 52.6514 44.7907C53.186 44.6794 53.5229 44.7647 53.662 45.0467C53.7407 45.2061 53.7633 45.3601 53.7299 45.5087C53.6986 45.6512 53.6277 45.7497 53.5174 45.8042C53.452 45.8364 53.1488 45.9326 52.6079 46.0928C51.9792 46.2811 51.3911 46.4849 50.8437 46.7041C51.6899 48.5735 52.1861 49.7388 52.3325 50.2002C52.5851 50.9903 52.5275 51.4761 52.1597 51.6576C51.7674 51.8512 51.4593 51.7211 51.2354 51.2675C51.2354 51.2675 51.0717 50.8274 50.7441 49.9473C50.4045 49.0324 50.0251 48.1296 49.6058 47.2387C49.1032 47.4766 48.7571 47.6042 48.5674 47.6215C48.3248 47.6447 48.1419 47.5316 48.0189 47.2823C47.8455 46.9309 47.9468 46.6624 48.3228 46.4769L48.3473 46.4648L49.0766 46.1354C48.8248 45.5837 48.5719 45.0352 48.318 44.4897C48.0904 43.9667 47.953 43.5543 47.9057 43.2524C47.6531 41.6695 48.2094 40.5413 49.5744 39.8677C50.3304 39.4947 51.0152 39.3067 51.6287 39.3038C52.1872 39.3027 52.538 39.4472 52.6811 39.7374ZM58.4369 39.3367C58.5135 39.492 58.531 39.6459 58.4894 39.7986C58.4479 39.9512 58.3617 40.0598 58.2309 40.1243C58.1328 40.1727 57.9525 40.1728 57.6898 40.1245C57.4271 40.0763 57.2182 40.0905 57.0629 40.1671C56.6746 40.3587 56.4446 40.6856 56.3729 41.1479C56.2991 41.606 56.4054 42.1253 56.6918 42.7056L57.088 43.5087C57.5297 44.4037 57.7865 45.1612 57.8587 45.7812C57.927 46.3624 57.8221 46.7216 57.5442 46.8587C57.1723 47.0422 56.8956 46.9501 56.7141 46.5822C56.6778 46.5087 56.602 46.2107 56.4865 45.6884C56.369 45.1619 56.2085 44.6923 56.0048 44.2795C55.4402 43.1352 54.825 42.3004 54.1592 41.7751C54.141 41.7587 53.9268 41.6078 53.5166 41.3223C53.3074 41.1765 53.1736 41.0444 53.1151 40.9259C53.0506 40.7951 53.0534 40.6412 53.1237 40.4643C53.1939 40.2873 53.3026 40.1625 53.4497 40.09C53.8829 39.8762 54.5047 40.23 55.3151 41.1515C55.3368 40.1244 55.7543 39.4102 56.5676 39.0089C56.9763 38.8072 57.3547 38.7399 57.7029 38.807C58.049 38.8699 58.2937 39.0465 58.4369 39.3367ZM66.7999 37.2683C67.3928 38.4698 67.5142 39.6016 67.1642 40.6637C66.8121 41.7216 66.0496 42.54 64.8767 43.1187C63.904 43.5987 62.9785 43.6437 62.1001 43.2539C61.2197 42.86 60.488 42.0724 59.9053 40.8913C59.2922 39.6489 59.1494 38.5201 59.4768 37.5048C59.7979 36.5078 60.5389 35.723 61.6995 35.1503C62.6722 34.6703 63.6273 34.6234 64.5648 35.0095C65.5024 35.3955 66.2474 36.1485 66.7999 37.2683ZM65.5861 37.8825C65.1807 37.061 64.6639 36.5182 64.0355 36.254C63.4092 35.9837 62.7507 36.019 62.06 36.3598C60.5193 37.12 60.2056 38.4258 61.1191 40.2771C61.5406 41.1313 62.0328 41.7066 62.5958 42.0031C63.1568 42.2954 63.7499 42.2873 64.3752 41.9788C65.1844 41.5795 65.6979 41.0187 65.9157 40.2963C66.1335 39.5739 66.0237 38.7693 65.5861 37.8825ZM76.6776 32.6307C78.2223 35.7612 78.6228 37.51 77.879 37.877C77.5929 38.0181 77.3611 37.9089 77.1837 37.5493C77.1816 37.5452 77.0212 37.045 76.7024 36.0487C76.3816 35.0483 75.9933 34.0863 75.5376 33.1627C74.7773 31.622 74.0335 31.0311 73.306 31.39C72.6685 31.7046 72.4411 32.2996 72.624 33.1749C72.7672 33.8462 73.2704 35.0564 74.1335 36.8056C74.2666 37.0753 74.4342 37.3636 74.6364 37.6703C74.8366 37.973 74.9508 38.153 74.979 38.2102C75.1786 38.6148 75.0864 38.9119 74.7022 39.1014C74.2404 39.3293 73.6455 38.7056 72.9175 37.2302C72.611 36.609 72.3139 35.9502 72.0261 35.2536C71.7404 34.551 71.5854 34.1752 71.5612 34.1262C71.2628 33.5213 70.7948 33.3762 70.1572 33.6908C69.5605 33.9852 69.2594 34.4666 69.2539 35.1351C69.2484 35.7832 69.523 36.6692 70.0775 37.793C70.4344 38.5164 70.7876 39.1807 71.137 39.7858C71.4844 40.3868 71.6339 40.6383 71.5855 40.5402C71.6621 40.6955 71.6684 40.8525 71.6044 41.0111C71.5445 41.1677 71.4266 41.2894 71.2509 41.3761C70.8872 41.5556 70.491 41.3191 70.0624 40.6667C69.9349 40.4806 69.6645 39.9686 69.2511 39.1308C68.386 37.3775 67.7033 35.6334 67.2029 33.8983C67.0388 33.3288 66.9614 32.9351 66.9707 32.7171C66.9782 32.4542 67.1045 32.2622 67.3498 32.1412C67.7339 31.9517 68.0268 32.0613 68.2285 32.4699C68.2285 32.4699 68.3644 32.9771 68.6362 33.9915C68.7437 33.3236 69.1244 32.8283 69.7783 32.5056C70.3014 32.2475 70.819 32.2614 71.3311 32.5474C71.4287 31.4372 71.9495 30.6492 72.8935 30.1833C74.2749 29.5017 75.5363 30.3175 76.6776 32.6307Z" fill="#181818"/>
<path d="M14.7601 54.9685C14.815 55.0887 14.8812 55.294 14.9586 55.5843C15.0361 55.8745 15.106 56.0881 15.1685 56.2249L15.2565 56.4177C15.4628 56.8695 15.571 57.1833 15.5811 57.3591C15.5947 57.6084 15.4668 57.7945 15.1973 57.9176C14.8988 58.0538 14.6098 57.9529 14.3301 57.6146C14.191 57.4527 14.0161 57.1518 13.8053 56.712C13.0537 56.5692 12.367 56.6398 11.7452 56.9237C10.9492 57.2871 10.4116 57.8432 10.1322 58.592C9.85285 59.3407 9.89583 60.1152 10.2611 60.9153C10.5735 61.5993 10.9634 62.0199 11.431 62.1772C11.7555 62.2845 12.3618 62.2957 13.2499 62.2109C14.0501 62.1311 14.6041 62.0936 14.9119 62.0983C15.4358 62.1046 15.8742 62.1925 16.2271 62.362C16.7526 62.6131 17.1686 63.0744 17.4752 63.746C17.7932 64.4425 17.7817 65.114 17.4407 65.7607C17.0997 66.4073 16.4711 66.9398 15.5549 67.3581C14.8668 67.6723 14.2378 67.7541 13.668 67.6035L14.2319 68.8715C14.419 69.2921 14.3114 69.5942 13.9093 69.7778C13.4906 69.969 13.1544 69.7868 12.9008 69.2313L12.4891 68.3296C11.9421 67.1315 11.6177 66.3278 11.5159 65.9183C11.3803 65.369 11.4722 65.0215 11.7914 64.8758C12.0442 64.7603 12.2606 64.7843 12.4404 64.9476C12.5469 65.0493 12.6709 65.2056 12.8123 65.4166C12.9919 65.7003 13.116 65.8841 13.1844 65.9681C13.565 66.4506 14.1077 66.531 14.8124 66.2092C16.0354 65.6509 16.4803 65.0068 16.1472 64.2772C15.9825 63.9165 15.7185 63.6839 15.3551 63.5793C15.0543 63.4912 14.5849 63.4725 13.9468 63.5234L12.6368 63.6331C11.6736 63.7071 10.9268 63.6022 10.3964 63.3183C9.84604 63.0236 9.38061 62.4595 9.00016 61.6263C8.44746 60.4158 8.37819 59.26 8.79235 58.1592C9.20462 57.0541 10.0098 56.2281 11.2079 55.6811C11.8961 55.3669 12.634 55.2604 13.4217 55.3617C13.3349 54.8753 13.4552 54.5573 13.7827 54.4078C14.1807 54.2261 14.5065 54.413 14.7601 54.9685ZM22.3506 55.5458C22.4169 55.6909 22.428 55.8361 22.3842 55.9814C22.3384 56.1225 22.2533 56.2215 22.1289 56.2782C22.0667 56.3066 21.7915 56.3346 21.3031 56.3622C20.8188 56.3879 20.3798 56.4907 19.986 56.6705C19.8616 56.7273 19.7348 56.7952 19.6056 56.8743C19.7607 57.62 19.967 58.2748 20.2244 58.8386C20.5557 59.5641 20.9325 60.0659 21.355 60.3439C21.7776 60.6219 22.2065 60.6615 22.6418 60.4628C22.7744 60.4022 22.9296 60.2812 23.1073 60.0999C23.2873 59.9125 23.4249 59.7971 23.5203 59.7535C23.8519 59.6021 24.1067 59.7213 24.2847 60.1109C24.4001 60.3638 24.357 60.6315 24.1553 60.914C23.9536 61.1964 23.6165 61.4455 23.1439 61.6613C21.3861 62.4639 19.9726 61.694 18.9031 59.3517C18.6779 58.8584 18.49 58.2879 18.3396 57.6401C18.2311 57.7097 18.002 57.8719 17.6525 58.1267C17.4223 58.2919 17.2471 58.402 17.1269 58.4569C16.6833 58.6594 16.3839 58.5907 16.2287 58.2507C16.0167 57.7864 16.6434 57.1346 18.1088 56.2952C17.9677 55.1522 18.1251 54.4767 18.5811 54.2685C18.7221 54.2041 18.866 54.201 19.0128 54.2592C19.1577 54.3133 19.2633 54.4129 19.3296 54.558C19.3788 54.6658 19.4101 54.8168 19.4237 55.011C19.4353 55.2011 19.4479 55.3932 19.4614 55.5874C21.0904 54.9088 22.0534 54.8949 22.3506 55.5458ZM29.5133 54.7253C30.0319 55.8612 30.4084 57.1246 30.6427 58.5156C30.7608 59.2131 30.6561 59.6367 30.3286 59.7862C29.9928 59.9395 29.7378 59.8255 29.5637 59.4441C29.5239 59.357 29.4987 59.2909 29.4881 59.2456C29.1693 59.6667 28.784 59.9804 28.3321 60.1867C27.532 60.552 26.8029 60.6119 26.1447 60.3664C25.4907 60.1189 24.9781 59.5889 24.6071 58.7764C24.2305 57.9514 24.1749 57.1877 24.4404 56.4854C24.7039 55.7789 25.2379 55.242 26.0421 54.8748C26.7427 54.5549 27.4404 54.5194 28.1352 54.7683C27.3088 53.1668 26.3276 52.6253 25.1917 53.1439C24.9388 53.2594 24.7023 53.4601 24.4821 53.746C24.2642 54.0258 24.1118 54.1856 24.0247 54.2253C23.8837 54.2897 23.7308 54.2894 23.5659 54.2244C23.4009 54.1594 23.2844 54.0523 23.2163 53.9031C23.1027 53.6544 23.178 53.3419 23.4421 52.9658C23.7236 52.5618 24.1317 52.2377 24.6665 51.9935C26.6522 51.0869 28.2678 51.9975 29.5133 54.7253ZM28.9181 56.763C28.4374 55.71 27.7016 55.4097 26.7108 55.8621C25.6246 56.358 25.32 57.1283 25.797 58.173C26.2778 59.226 27.0571 59.5064 28.135 59.0143C28.6034 58.8004 28.9079 58.4961 29.0483 58.1013C29.1868 57.7024 29.1434 57.2563 28.9181 56.763ZM34.7584 49.3922C34.8303 49.5497 34.8432 49.7042 34.7971 49.8555C34.7509 50.0068 34.6615 50.1128 34.5289 50.1733C34.4294 50.2188 34.2491 50.2134 33.988 50.1573C33.7269 50.1011 33.5176 50.109 33.3601 50.181C32.9662 50.3608 32.7265 50.6806 32.6409 51.1405C32.5534 51.5963 32.6441 52.1185 32.9129 52.7072L33.2848 53.5218C33.6993 54.4297 33.9333 55.1946 33.9868 55.8164C34.0375 56.3994 33.922 56.7553 33.6401 56.884C33.2628 57.0563 32.989 56.9558 32.8187 56.5827C32.7846 56.5081 32.7177 56.208 32.618 55.6824C32.5164 55.1526 32.37 54.6784 32.1789 54.2597C31.6489 53.0989 31.0591 52.246 30.4094 51.701C30.3917 51.684 30.1821 51.5267 29.7807 51.2291C29.576 51.0771 29.4462 50.9409 29.3913 50.8207C29.3307 50.688 29.3382 50.5343 29.4137 50.3596C29.4892 50.1848 29.6016 50.0634 29.7509 49.9952C30.1903 49.7946 30.8012 50.167 31.5835 51.1123C31.6361 50.0864 32.0749 49.385 32.8998 49.0084C33.3144 48.8191 33.6947 48.7632 34.0407 48.8407C34.3848 48.914 34.624 49.0979 34.7584 49.3922ZM41.0432 47.0112C41.1095 47.1562 41.1207 47.3014 41.0768 47.4467C41.031 47.5879 40.9459 47.6868 40.8216 47.7436C40.7594 47.772 40.4841 47.8 39.9957 47.8276C39.5115 47.8533 39.0724 47.9561 38.6786 48.1359C38.5542 48.1927 38.4274 48.2606 38.2982 48.3396C38.4533 49.0854 38.6596 49.7402 38.917 50.304C39.2483 51.0295 39.6252 51.5312 40.0477 51.8092C40.4702 52.0872 40.8991 52.1269 41.3344 51.9281C41.467 51.8676 41.6222 51.7466 41.7999 51.5653C41.9799 51.3779 42.1176 51.2624 42.2129 51.2189C42.5446 51.0675 42.7994 51.1866 42.9773 51.5763C43.0927 51.8292 43.0496 52.0969 42.8479 52.3793C42.6463 52.6618 42.3091 52.9109 41.8365 53.1267C40.0788 53.9292 38.6652 53.1594 37.5958 50.8171C37.3705 50.3237 37.1827 49.7532 37.0322 49.1055C36.9237 49.1751 36.6947 49.3373 36.3451 49.5921C36.1149 49.7573 35.9397 49.8673 35.8195 49.9222C35.3759 50.1248 35.0765 50.056 34.9213 49.7161C34.7093 49.2518 35.336 48.5999 36.8014 47.7606C36.6603 46.6176 36.8178 45.942 37.2738 45.7338C37.4147 45.6695 37.5586 45.6664 37.7054 45.7246C37.8503 45.7787 37.9559 45.8783 38.0222 46.0234C38.0714 46.1311 38.1028 46.2821 38.1163 46.4764C38.1279 46.6664 38.1405 46.8586 38.154 47.0528C39.783 46.3742 40.7461 46.3603 41.0432 47.0112Z" fill="#181818"/>
<path d="M33.7424 29.3937C33.8162 29.5504 33.8309 29.7046 33.7866 29.8565C33.7423 30.0084 33.6541 30.1154 33.5222 30.1775C33.4233 30.2241 33.2429 30.2209 32.9812 30.1679C32.7194 30.1149 32.5102 30.1253 32.3536 30.1991C31.9619 30.3836 31.726 30.7063 31.6459 31.1672C31.5639 31.624 31.6608 32.1451 31.9366 32.7305L32.3182 33.5406C32.7436 34.4435 32.9867 35.2055 33.0476 35.8267C33.1053 36.4091 32.994 36.7663 32.7136 36.8983C32.3385 37.0751 32.0635 36.9779 31.8887 36.6069C31.8537 36.5327 31.7833 36.2334 31.6773 35.709C31.5694 35.1805 31.4173 34.7081 31.2212 34.2917C30.6774 33.1373 30.0774 32.2915 29.4213 31.7543C29.4033 31.7376 29.1919 31.5828 28.7869 31.2899C28.5805 31.1403 28.4491 31.0058 28.3927 30.8862C28.3306 30.7543 28.3362 30.6005 28.4096 30.4249C28.4831 30.2492 28.594 30.1264 28.7424 30.0565C29.1794 29.8506 29.7947 30.2157 30.5883 31.1516C30.6286 30.1251 31.0589 29.4186 31.8794 29.0321C32.2916 28.8379 32.6712 28.7774 33.0181 28.8508C33.3631 28.92 33.6045 29.101 33.7424 29.3937ZM41.1655 26.9773C41.3675 27.406 41.3687 27.7934 41.1689 28.1394C41.0797 28.2922 40.7166 28.6069 40.0796 29.0833C39.235 29.7179 38.4829 30.1906 37.8233 30.5014C37.5224 30.6431 37.1498 30.7934 36.7058 30.9523C37.438 32.5065 38.3957 33.005 39.5789 32.4475C39.9046 32.2941 40.1557 32.0625 40.3321 31.7527C40.4213 31.5998 40.5545 31.2676 40.7316 30.7559C40.7951 30.5699 40.8948 30.4448 41.0309 30.3807C41.204 30.2991 41.3835 30.2952 41.5694 30.3688C41.7574 30.4364 41.896 30.565 41.9854 30.7547C42.0592 30.9114 42.0674 31.0838 42.01 31.2721C41.666 32.3812 41.0178 33.1601 40.0655 33.6087C38.0948 34.5371 36.5725 33.8613 35.4985 31.5815C34.9449 30.4065 34.7805 29.2447 35.0051 28.0961C35.2619 26.7913 35.916 25.8912 36.9673 25.396C37.7877 25.0095 38.593 24.9651 39.3831 25.2629C40.1732 25.5607 40.7674 26.1321 41.1655 26.9773ZM39.9699 27.6312C39.6752 27.0698 39.311 26.6872 38.8775 26.4834C38.4481 26.2776 38.0272 26.2719 37.615 26.4661C37.079 26.7186 36.6973 27.1327 36.4698 27.7084C36.2318 28.294 36.1768 28.9899 36.3047 29.7961C36.613 29.6912 36.932 29.5611 37.2618 29.4057C38.0616 29.0289 38.9643 28.4374 39.9699 27.6312ZM46.2681 22.843C46.4624 23.2553 46.3513 23.5595 45.9349 23.7557C45.7906 23.8237 45.6529 23.8255 45.5219 23.7613C45.4195 23.6937 45.3141 23.6249 45.2057 23.5551C44.7947 23.3457 44.3769 23.3411 43.9522 23.5411C43.2225 23.8849 43.0528 24.4711 43.4432 25.2998C43.5792 25.5883 43.7617 25.8046 43.9907 25.9486C44.1855 26.0735 44.4797 26.1792 44.8731 26.2659C45.7595 26.4579 46.3278 26.6108 46.5779 26.7247C47.0986 26.953 47.4773 27.3186 47.7143 27.8216C48.025 28.4812 48.0641 29.1202 47.8315 29.7386C47.597 30.3529 47.1355 30.8222 46.447 31.1465C45.7914 31.4553 45.1728 31.5377 44.5911 31.3936C44.0276 31.2561 43.6273 30.9358 43.3904 30.4328C43.1515 29.9257 43.2506 29.5693 43.6876 29.3634C44.0545 29.1905 44.3772 29.3836 44.6556 29.9426C45.1195 30.1573 45.537 30.1773 45.908 30.0025C46.2172 29.8568 46.425 29.6456 46.5314 29.3688C46.6399 29.0859 46.6281 28.8043 46.4961 28.5239C46.3757 28.2683 46.1425 28.0835 45.7965 27.9694C45.7885 27.9631 45.3719 27.8646 44.5466 27.6741C43.4031 27.4068 42.6225 26.8299 42.205 25.9435C41.8651 25.2221 41.8108 24.5348 42.0422 23.8817C42.2777 23.2267 42.7541 22.7302 43.4715 22.3923C44.061 22.1146 44.6389 22.0312 45.2051 22.1423C45.7429 22.2467 46.0972 22.4802 46.2681 22.843ZM54.016 20.9235C54.218 21.3522 54.2192 21.7396 54.0194 22.0856C53.9302 22.2384 53.5671 22.553 52.9301 23.0295C52.0856 23.6641 51.3335 24.1368 50.6738 24.4476C50.3729 24.5893 50.0004 24.7396 49.5563 24.8984C50.2885 26.4527 51.2462 26.9511 52.4294 26.3937C52.7551 26.2403 53.0062 26.0087 53.1827 25.6988C53.2719 25.546 53.405 25.2138 53.5821 24.7021C53.6456 24.5161 53.7453 24.391 53.8814 24.3269C54.0545 24.2453 54.234 24.2414 54.4199 24.315C54.6079 24.3826 54.7466 24.5112 54.8359 24.7009C54.9097 24.8575 54.9179 25.03 54.8605 25.2182C54.5165 26.3274 53.8683 27.1063 52.916 27.5549C50.9453 28.4833 49.423 27.8075 48.349 25.5277C47.7954 24.3527 47.631 23.1909 47.8556 22.0423C48.1124 20.7374 48.7665 19.8374 49.8178 19.3421C50.6382 18.9556 51.4435 18.9113 52.2336 19.2091C53.0238 19.5068 53.6179 20.0783 54.016 20.9235ZM52.8204 21.5774C52.5257 21.016 52.1616 20.6334 51.728 20.4296C51.2986 20.2238 50.8778 20.2181 50.4655 20.4123C49.9295 20.6648 49.5478 21.0789 49.3203 21.6545C49.0823 22.2402 49.0273 22.9361 49.1552 23.7423C49.4635 23.6374 49.7825 23.5073 50.1123 23.3519C50.9121 22.9751 51.8148 22.3836 52.8204 21.5774ZM61.1267 19.4477C61.6589 20.5773 62.0504 21.8362 62.3013 23.2242C62.4277 23.9203 62.3281 24.3451 62.0024 24.4985C61.6684 24.6558 61.4121 24.5448 61.2334 24.1656C61.1927 24.079 61.1667 24.0131 61.1555 23.968C60.8418 24.3929 60.4603 24.7112 60.0109 24.9229C59.2152 25.2977 58.4868 25.3663 57.8257 25.1286C57.1688 24.889 56.65 24.3651 56.2693 23.5571C55.8828 22.7367 55.8181 21.9737 56.0752 21.2683C56.3303 20.5587 56.8577 20.0155 57.6576 19.6387C58.3543 19.3105 59.0515 19.2666 59.7492 19.5072C58.9037 17.9156 57.9162 17.3859 56.7865 17.9181C56.535 18.0366 56.3009 18.24 56.0842 18.5285C55.8697 18.811 55.7191 18.9726 55.6325 19.0134C55.4924 19.0794 55.3394 19.0809 55.1737 19.0179C55.008 18.9549 54.8902 18.8492 54.8203 18.7008C54.7038 18.4534 54.7753 18.1401 55.0349 17.7609C55.3115 17.3535 55.7157 17.0246 56.2476 16.774C58.2224 15.8437 59.8487 16.7349 61.1267 19.4477ZM60.5559 21.4923C60.0626 20.4452 59.3233 20.1537 58.338 20.6179C57.2578 21.1267 56.9625 21.9006 57.4519 22.9395C57.9452 23.9867 58.7278 24.2578 59.7997 23.7528C60.2656 23.5334 60.5664 23.2254 60.702 22.829C60.8358 22.4285 60.7871 21.9829 60.5559 21.4923ZM66.3077 14.0523C66.3815 14.209 66.3963 14.3633 66.3519 14.5151C66.3076 14.667 66.2195 14.774 66.0876 14.8361C65.9886 14.8827 65.8083 14.8795 65.5465 14.8265C65.2848 14.7735 65.0756 14.7839 64.9189 14.8577C64.5273 15.0422 64.2914 15.3649 64.2113 15.8258C64.1292 16.2826 64.2261 16.8037 64.5019 17.3891L64.8836 18.1992C65.3089 19.1021 65.552 19.8641 65.6129 20.4853C65.6706 21.0677 65.5593 21.4249 65.279 21.557C64.9038 21.7337 64.6288 21.6365 64.454 21.2655C64.4191 21.1913 64.3486 20.892 64.2426 20.3676C64.1347 19.8391 63.9827 19.3667 63.7865 18.9503C63.2427 17.7959 62.6427 16.9501 61.9866 16.4129C61.9687 16.3962 61.7572 16.2414 61.3523 15.9485C61.1458 15.799 61.0144 15.6644 60.9581 15.5448C60.8959 15.4129 60.9016 15.2591 60.975 15.0835C61.0484 14.9078 61.1593 14.7851 61.3077 14.7151C61.7447 14.5093 62.36 14.8743 63.1536 15.8103C63.1939 14.7837 63.6243 14.0772 64.4447 13.6907C64.857 13.4965 65.2366 13.4361 65.5835 13.5094C65.9284 13.5786 66.1698 13.7596 66.3077 14.0523ZM75.5497 14.1493C75.7517 14.578 75.576 15.3333 75.0227 16.4151C74.6298 17.1745 73.9345 17.7892 72.9368 18.2592C71.9474 18.7253 71.0147 18.7667 70.1389 18.3833C69.2449 17.9934 68.5251 17.2192 67.9793 16.0608C67.2743 14.5642 67.0596 13.2422 67.3351 12.0948C67.6087 10.9433 68.3289 10.0927 69.4956 9.54303C70.3614 9.13516 71.1618 8.99488 71.8968 9.12216C72.5913 9.2383 73.058 9.54991 73.2969 10.057C73.4931 10.4734 73.3974 10.7729 73.0098 10.9554C72.8284 11.0409 72.6664 11.0392 72.5237 10.9502C72.3641 10.8038 72.1439 10.6304 71.8632 10.4302C71.4151 10.2383 70.8055 10.3239 70.0346 10.6871C69.2307 11.0658 68.7509 11.6621 68.5953 12.476C68.4438 13.2879 68.6331 14.2566 69.1633 15.3821C70.0024 17.1631 71.131 17.7195 72.5492 17.0514C73.3696 16.6649 73.9335 16.0441 74.241 15.1889C74.2432 15.1829 74.2836 14.9372 74.3622 14.4518C74.4058 14.1592 74.5224 13.9683 74.712 13.8789C74.8604 13.809 75.0216 13.8036 75.1955 13.8627C75.3675 13.9177 75.4856 14.0132 75.5497 14.1493ZM82.4895 9.64824C83.045 10.8273 83.3764 11.8248 83.4837 12.6408C83.5878 13.4179 83.477 13.8832 83.1513 14.0366C82.9658 14.124 82.782 14.1401 82.5998 14.0849C82.4195 14.0338 82.2954 13.9361 82.2274 13.7918C82.2274 13.7918 82.1544 13.3854 82.0083 12.5726C81.8602 11.7557 81.6104 10.9742 81.2589 10.228C80.7325 9.11073 80.2221 8.35876 79.7276 7.97208C79.2171 7.5728 78.665 7.51299 78.0714 7.79267C77.758 7.94027 77.4744 8.16706 77.2206 8.47304C76.9668 8.77901 76.8027 9.08301 76.7284 9.38503C76.64 9.76418 76.7279 10.2341 76.992 10.7948L77.1784 11.1906C77.6737 12.2419 78.1936 13.2438 78.738 14.1963C79.2847 15.1428 79.5424 15.5831 79.5114 15.5171C79.7036 15.9253 79.6101 16.2187 79.2308 16.3974C79.0123 16.5003 78.8257 16.5051 78.6709 16.4118C78.5382 16.3333 78.3625 16.1314 78.1438 15.8062C77.5511 14.9117 76.8789 13.6666 76.1273 12.0711C75.4689 10.6735 74.8699 9.0011 74.3304 7.05381C74.216 6.62913 74.1615 6.34245 74.167 6.19376C74.1803 5.97593 74.2941 5.81652 74.5085 5.71553C74.6652 5.64172 74.8243 5.63729 74.9858 5.70223C75.1474 5.76717 75.2709 5.89034 75.3564 6.07174C75.3525 6.06349 75.5737 6.80564 76.0199 8.29817C76.3252 7.5347 76.8674 6.96943 77.6466 6.60236C79.506 5.72643 81.1203 6.74172 82.4895 9.64824Z" fill="#181818"/>
<path d="M17.5253 44.2235C17.7003 44.6343 17.5908 44.9237 17.1966 45.0916C16.9199 45.2095 16.5061 45.0811 15.9552 44.7065C15.5495 44.4285 14.83 43.8384 13.7968 42.9361C12.1844 43.5931 10.2142 43.9915 7.88611 44.1311C6.99222 46.4982 6.25388 47.8059 5.67108 48.0541C5.52014 48.1184 5.36485 48.1202 5.20521 48.0594C5.04379 47.9944 4.93004 47.8843 4.86396 47.7292C4.79074 47.5573 4.84815 47.3025 5.0362 46.9648C5.21827 46.6247 5.40124 46.2867 5.5851 45.9508C5.89815 45.3717 6.17475 44.7709 6.4149 44.1485C5.5723 44.1706 5.08671 44.0306 4.95812 43.7288C4.8849 43.5569 4.879 43.386 4.94041 43.2162C5.00004 43.0422 5.10952 42.9213 5.26885 42.8534C5.39882 42.798 5.6146 42.7755 5.91617 42.7857C6.44633 42.7977 6.76048 42.8026 6.85862 42.8004C7.60358 39.8627 7.8639 37.8398 7.63956 36.7316C7.55003 36.3586 7.46171 35.9826 7.37458 35.6036C7.34772 35.308 7.48941 35.094 7.79968 34.9619C8.05544 34.853 8.27289 34.8866 8.45201 35.063C8.55591 35.1673 8.67909 35.3402 8.82157 35.5817C8.99325 35.8801 9.12265 36.085 9.20977 36.1965C10.2992 37.6495 11.9395 39.3607 14.1307 41.3301C14.3218 41.2438 14.5039 41.1538 14.677 41.0602C14.8394 40.9762 14.9206 40.9342 14.9206 40.9342C15.386 40.736 15.708 40.8465 15.8866 41.2658C16.0705 41.6977 15.9214 42.0163 15.4392 42.2216L15.2568 42.2993C15.5632 42.5651 16.065 42.9582 16.7622 43.4785C17.1995 43.8074 17.4539 44.0557 17.5253 44.2235ZM12.6725 41.9363C11.3742 40.7606 10.1294 39.4605 8.93819 38.036C8.91127 39.6475 8.69474 41.2208 8.2886 42.756C9.79615 42.6786 11.2575 42.4053 12.6725 41.9363ZM19.9192 42.1858C20.0407 42.4709 20.1049 42.6739 20.1118 42.7948C20.1191 43.0097 20.0011 43.1689 19.7579 43.2725C19.3596 43.4421 18.9873 43.2193 18.641 42.604C18.0551 41.5656 17.3585 40.0989 16.5513 38.2037C15.6494 36.0864 15.1243 34.772 14.9758 34.2607C14.8161 33.6996 14.9144 33.3432 15.2708 33.1914C15.6901 33.0128 16.0078 33.1771 16.2238 33.6845C16.2774 33.8103 16.4678 34.3211 16.7949 35.2171C17.1203 36.1088 17.4401 36.9236 17.7544 37.6616C18.0294 38.3073 18.4193 39.1294 18.9239 40.1281C19.4267 41.1226 19.7585 41.8085 19.9192 42.1858ZM23.3783 40.7125C23.4997 40.9976 23.5639 41.2006 23.5708 41.3215C23.5781 41.5363 23.4602 41.6955 23.217 41.7991C22.8187 41.9688 22.4464 41.7459 22.1001 41.1306C21.5142 40.0923 20.8176 38.6255 20.0104 36.7304C19.1085 34.613 18.5833 33.2987 18.4348 32.7873C18.2751 32.2262 18.3735 31.8698 18.7298 31.718C19.1491 31.5394 19.4668 31.7038 19.6829 32.2111C19.7365 32.3369 19.9268 32.8478 20.254 33.7437C20.5793 34.6354 20.8991 35.4503 21.2135 36.1882C21.4885 36.8339 21.8783 37.6561 22.3829 38.6547C22.8858 39.6492 23.2176 40.3351 23.3783 40.7125Z" fill="#181818"/>
</svg>
